# xmcd CD database file
#
# Track frame offsets:
#	150
#	19898
#	36795
#	47593
#	55638
#	73038
#	87003
#	104525
#	123755
#	137970
#	150633
#	162863
#	179783
#	196508
#
# Disc length: 2991 seconds
#
# Revision: 0
# Processed by: cddbd v1.4PL0 Copyright (c) Steve Scherf et al.
# Submitted via: CDex 1.50beta10
#
DISCID=b50bad0e
DTITLE=Susannah McCorkle - Over The Rainbow
DYEAR=2002
DGENRE=Jazz
TTITLE0=OLD DEVIL MON
TTITLE1=THE BEGAT
TTITLE2=IF I ONLY HAD A HEART
TTITLE3=DINING DOING, THE WITCH IS DEAD
TTITLE4=OVER THE RAINBOW
TTITLE5=POOR YOU
TTITLE6=NAPOLEON
TTITLE7=WHAT IN THERE TO SAY
TTITLE8=THRILL ME
TTITLE9=HAPPINESS IS A THING CALLED JOE
TTITLE10=THE EAGLE AND ME
TTITLE11=MORNIN' IN THE MORNIN'
TTITLE12=DOWN WITH LOVE
TTITLE13=HERE'S TO YOUR ILLUSIONS - IN TIMES LIKE THESE
EXTD=YEAR: 2002
EXTT0=
EXTT1=
EXTT2=
EXTT3=
EXTT4=
EXTT5=
EXTT6=
EXTT7=
EXTT8=
EXTT9=
EXTT10=
EXTT11=
EXTT12=
EXTT13=
PLAYORDER=
